<svg xmlns="http://www.w3.org/2000/svg" xmlns:xlink="http://www.w3.org/1999/xlink" aria-hidden="true" role="img" class="iconify iconify--iconoir" width="100%" height="100%" preserveAspectRatio="xMidYMid meet" viewBox="0 0 24 24"><g fill="none" stroke="currentColor" stroke-linecap="round" stroke-linejoin="round" stroke-width="1.5"><path fill="currentColor" d="M12.4 17h-.8a.6.6 0 0 1-.6-.6v-1.8a.6.6 0 0 1 .6-.6h.8a.6.6 0 0 1 .6.6v1.8a.6.6 0 0 1-.6.6Z"></path><path d="M3 9.5L12 4l9 5.5M19 13v6.4a.6.6 0 0 1-.6.6H5.6a.6.6 0 0 1-.6-.6V13"></path></g></svg>